<?xml version="1.0" encoding="utf-8"?>
<!-- Generator: Adobe Illustrator 27.5.0, SVG Export Plug-In . SVG Version: 6.00 Build 0)  -->
<svg version="1.1" id="Layer_1" xmlns="http://www.w3.org/2000/svg" xmlns:xlink="http://www.w3.org/1999/xlink" x="0px" y="0px"
	 viewBox="0 0 4000 4000" style="enable-background:new 0 0 4000 4000;" xml:space="preserve">
<g>
	<g>
		<g>
			<!-- <rect style="fill:#E7C0FF;" width="4000" height="4000"/> -->
		</g>
	</g>
	<g>
		<g>
			<g>
				<g>
					<path style="fill:#F8F8F8;" d="M1994.38,2772.434c-9.02,0.154-18.706,0.769-28.956,1.794
						c-110.186,10.865-281.103,67.393-281.103,67.393l-194.389,282.64c-10.865,15.734-31.057,22.14-48.995,15.529
						c-150.263-55.606-282.128-126.227-392.263-214.735c-14.094-11.326-19.321-30.391-12.915-47.303
						c2.409-6.303,5.227-13.376,8.456-20.961c18.091-41.973,49.661-99.475,95.17-126.637c76.259-45.458,178.553,15.99,178.553,15.99
						s136.631-200.488,181.474-250.456c44.843-49.968,195.619-111.468,195.619-111.468l269.469,190.494
						C1964.501,2574.713,2100.312,2770.742,1994.38,2772.434z"/>
				</g>
			</g>
			<g>
				<g>
					<path style="fill:#F8F8F8;" d="M2941.622,2507.782c-0.307,33.312-11.889,65.548-32.799,91.48
						c-49.097,60.987-155.747,158.668-326.766,143.601c-39.155-3.434-73.594-30.545-103.831-73.645
						c-160.154-227.906-203.665-903.834-203.665-903.834l221.653-181.935c0,0,216.529,7.636,295.965,78.77
						c34.696,31.057,69.341,134.068,96.554,271.16c13.53,68.162,25.266,144.78,34.183,225.19
						c7.124,63.959,12.454,130.327,15.58,196.695C2940.956,2406.462,2942.032,2457.66,2941.622,2507.782z"/>
				</g>
			</g>
			<g>
				<g>
					<path style="fill:#371A45;" d="M2617.153,2762.895c-11.919,0-24.138-0.527-36.719-1.636
						c-111.25-9.8-199.575-181.995-262.524-511.804c-45.811-240.012-61.636-480.486-61.79-482.886
						c-0.654-10.183,7.07-18.97,17.253-19.627c10.193-0.601,18.97,7.07,19.626,17.253c0.154,2.38,15.857,240.847,61.265,478.628
						c57.795,302.639,139.268,473.682,229.412,481.624c162.93,14.321,264.626-79.524,310.74-136.755
						c18.274-22.681,28.472-51.116,28.716-80.071c3.169-375.947-76.135-771.509-143.281-831.636
						c-73.513-65.823-282.175-73.997-284.272-74.07c-10.198-0.364-18.171-8.926-17.81-19.121c0.361-10.2,9.055-18.123,19.116-17.813
						c9.114,0.322,224.158,8.74,307.62,83.474c83.069,74.382,158.679,492.073,155.581,859.478
						c-0.313,37.246-13.416,73.806-36.89,102.944C2876.006,2669.448,2775.791,2762.883,2617.153,2762.895z"/>
				</g>
			</g>
			<g>
				<g>
					<path style="fill:#F8F8F8;" d="M2938.496,2355.263c-69.238,44.69-189.52,76.823-236.003,41.769l5.843-246.407l2.972-123.767
						c0,0,86.919-63.857,177.426-93.479c41.819-13.683,65.138,47.611,78.77,124.023c0.154,0.923,0.307,1.948,0.512,2.973
						c15.375,88.354,18.091,195.567,21.474,230.315C2991.488,2311.292,2970.424,2334.61,2938.496,2355.263z"/>
				</g>
			</g>
			<g>
				<g>
					<path style="fill:#371A45;" d="M2760.034,2430.405c-26.98,0.002-51.155-5.403-68.672-18.625
						c-8.147-6.147-9.766-17.734-3.618-25.879c6.147-8.147,17.732-9.766,25.879-3.618c31.794,23.989,125.247,8.274,200-33.638
						c41.018-22.998,58.547-45.227,57.478-56.152c-0.945-9.626-1.802-24.036-2.886-42.28
						c-4.346-73.159-15.891-267.493-60.107-297.583c-4.324-2.942-8.269-3.433-13.613-1.682
						c-86.514,28.323-171.426,90.186-172.275,90.808c-8.22,6.033-19.788,4.258-25.825-3.967c-6.038-8.228-4.265-19.787,3.96-25.825
						c3.647-2.678,90.4-65.94,182.642-96.138c16.218-5.305,32.09-3.15,45.903,6.252c54.661,37.197,67.998,187.749,76.208,325.942
						c1.06,17.849,1.897,31.946,2.771,40.869c2.954,30.12-24.102,62.791-76.182,91.99
						C2886.242,2406.364,2816.921,2430.402,2760.034,2430.405z"/>
				</g>
			</g>
			<g style="opacity:0.25;">
				<g>
					<path style="fill:#371A45;" d="M2938.496,2355.263c2.46,51.198,3.536,102.396,3.126,152.518
						c-0.307,33.312-11.889,65.548-32.799,91.48c-49.097,60.987-155.747,158.668-326.766,143.601
						c-39.155-3.434-73.594-30.545-103.831-73.645c2.819-99.834,16.759-107.162,27.828-204.178
						c11.941-105.163,32.441-173.479,46.125-188.854l156.157-125.561l7.482-5.996c0,0,5.535,58.527,85.792,55.76
						c41.204-1.435,87.688-16.4,121.307-41.82c31.877-24.138,52.121-57.707,45.099-98.194
						c15.375,88.354,18.091,195.567,21.474,230.315C2991.488,2311.292,2970.424,2334.61,2938.496,2355.263z"/>
				</g>
			</g>
			<g>
				<g>
					<path style="fill:#371A45;" d="M2947.664,2003.526c-28.523,8.728-57.383,18.601-85.022,29.897
						c-18.943,8.322-40.877,16.619-55.374,30.444c-0.69,0.673-0.865,1.149-1.394,1.736c-0.049,0.354-0.263,0.235-0.37,0.608
						c-0.956,4.111-1.459,9.373-1.826,13.75c-1.692,29.704-0.789,60.515-0.015,90.942c0.926,30.52,2.256,61.064,3.891,91.599
						c-4.609-30.232-8.918-60.518-12.832-90.894c-3.754-30.466-7.679-60.635-8.977-92.036c-0.022-5.012-0.161-10.777,0.567-15.891
						c0.299-4.184,2.488-8.699,4.882-12.014c16.521-20.22,38.582-30.358,59.975-42.584c27.692-14.601,55.654-27.34,84.563-39.391
						C2959.139,1960.956,2971.495,1995.555,2947.664,2003.526L2947.664,2003.526z"/>
				</g>
			</g>
			<g>
				<g>
					<path style="fill:#371A45;" d="M1455.488,3160.859c-6.997,0.002-14.077-1.218-20.943-3.757
						c-155.637-57.556-289.358-130.779-397.449-217.639c-20.4-16.389-27.886-43.828-18.626-68.276
						c16.526-43.625,52.981-122.019,111.448-156.902c66.931-39.929,148.477-8.523,182.07,7.813
						c31.851-46.423,134.893-195.54,173.672-238.75c47.141-52.527,196.057-113.657,202.373-116.235
						c9.446-3.86,20.232,0.679,24.087,10.129c3.855,9.448-0.679,20.232-10.127,24.089c-40.847,16.67-154.399,68.337-188.828,106.699
						c-43.518,48.491-178.613,246.526-179.973,248.521c-5.515,8.093-16.387,10.476-24.785,5.43
						c-0.911-0.542-93.882-55.142-159.553-15.957c-48.845,29.141-81.001,99.128-95.823,138.254
						c-3.577,9.438-0.676,20.039,7.212,26.377c104.98,84.36,235.227,155.615,387.119,211.785c10.046,3.716,21.282,0.151,27.344-8.66
						l194.407-282.629c2.285-3.323,5.596-5.808,9.426-7.073c8.445-2.791,208.057-68.384,315.559-70.12
						c16.042-0.259,18.96-5.938,19.919-7.803c13.569-26.409-30.591-111.643-64.707-160.933c-5.808-8.391-3.716-19.9,4.673-25.71
						c8.389-5.808,19.897-3.718,25.705,4.668c16.238,23.438,95.796,143.176,67.205,198.853c-6.384,12.437-20.625,27.368-52.2,27.878
						c-92.031,1.484-264.731,55.459-298.689,66.355l-190.85,277.456C1493.647,3151.455,1474.905,3160.859,1455.488,3160.859z"/>
				</g>
			</g>
			<g style="opacity:0.25;">
				<g>
					<path style="fill:#371A45;" d="M2001.657,2687.872c0,11.531-7.687,17.937-16.656,41c-3.741,9.583-10.813,26.137-19.577,45.356
						c-110.186,10.865-281.103,67.393-281.103,67.393l-194.389,282.64c-10.865,15.734-31.057,22.14-48.995,15.529
						c-150.263-55.606-282.128-126.227-392.263-214.735c-14.094-11.326-19.321-30.391-12.915-47.303
						c2.409-6.303,5.227-13.376,8.456-20.961l49.712,29.263c172.71,93.992,298.476,100.551,359.361-13.683
						c0,0,117.874-158.873,211.967-224.472c94.094-65.65,81.435-170.148,81.435-170.148l226.778,181.935
						C1981.157,2666.091,2001.657,2676.341,2001.657,2687.872z"/>
				</g>
			</g>
			<g>
				<g>
					<path style="fill:#371A45;" d="M1686.487,2851.875c-1.201,0-2.424-0.142-3.643-0.439
						c-187.642-45.605-301.162-192.439-305.903-198.667c-5.144-6.755-3.835-16.404,2.922-21.545
						c6.755-5.142,16.401-3.833,21.54,2.915c1.233,1.611,112.056,144.482,288.701,187.419c8.252,2.004,13.315,10.32,11.309,18.569
						C1699.704,2847.158,1693.415,2851.875,1686.487,2851.875z"/>
				</g>
			</g>
			<g>
				<g>
					<path style="fill:#F8F8F8;" d="M1313.079,2455.063c0,0,145.283-29.822,260.406-114.405l-282.933,21.553"/>
				</g>
			</g>
			<g style="opacity:0.25;">
				<g>
					<path style="fill:#371A45;" d="M1313.079,2455.063c0,0,145.283-29.822,260.406-114.405l-282.933,21.553"/>
				</g>
			</g>
			<g>
				<g>
					<path style="fill:#371A45;" d="M1313.059,2473.544c-8.587,0-16.277-6.018-18.076-14.758
						c-2.056-9.993,4.38-19.763,14.373-21.821c1.416-0.293,142.839-30.122,253.191-111.196c8.225-6.045,19.785-4.275,25.83,3.95
						c6.042,8.223,4.275,19.788-3.95,25.83c-117.039,85.991-261.538,116.365-267.632,117.615
						C1315.542,2473.42,1314.292,2473.544,1313.059,2473.544z"/>
				</g>
			</g>
			<g>
				<g>
					<path style="fill:#F8F8F8;" d="M2507.745,2879.186l-200.641,262.192c-50.019,65.343-141.858,82.717-211.404,38.745
						c-61.704-39.052-113.825-111.826-145.907-188.598c-24.087-57.451-36.9-117.156-34.234-166.714
						c0.922-17.527,7.124-34.337,17.015-48.789l20.602-30.083c0,0-180.449-54.99-219.296-336.503v-73.492
						c0,0-93.94-6.252-100.807-18.501c-6.816-12.249-93.735-311.186-93.735-311.186s117.669-191.417,286.792-265.677
						c79.744-35.003,191.109-48.431,286.484-52.889c106.906-4.971,193.774,1.384,193.774,1.384l150.365-7.944
						c0,0,127.867,36.438,196.183,157.694c68.367,121.307,88.866,335.325,27.367,444.435
						C2760.199,2555.085,2725.913,2766.079,2507.745,2879.186z"/>
				</g>
			</g>
			<g>
				<g>
					<path style="fill:#371A45;" d="M2179.194,3222.57c-32.288,0.002-64.707-8.708-93.369-26.853
						c-118.965-75.308-194.936-256.443-188.713-371.907c1.099-20.381,8.093-40.518,20.229-58.232l7.752-11.313
						c-52.122-25.347-177.376-109.5-209.517-342.322c-0.117-0.837-0.176-1.682-0.176-2.527v-56.304
						c-87.595-7.234-94.587-19.746-98.445-26.655c-6.836-12.244-62.695-202.639-95.383-315.044
						c-1.458-5.005-0.73-10.396,2.002-14.836c4.929-8.018,122.695-197.188,295.125-272.917
						c171.355-75.256,476.121-53.94,489.016-52.996c10.176,0.745,17.822,9.6,17.078,19.775c-0.745,10.178-9.543,17.869-19.775,17.08
						c-3.064-0.22-308.538-21.575-471.46,49.978c-144.092,63.284-251.624,217.524-274.148,251.685
						c30.828,105.876,78.408,266.985,88.765,296.245c12.844,4.656,53.42,9.854,86.938,12.095
						c9.705,0.649,17.246,8.711,17.246,18.438v72.18c37.178,265.63,204.526,319.626,206.216,320.142
						c5.627,1.716,10.1,6.008,12.048,11.563c1.946,5.552,1.13,11.699-2.195,16.553l-20.598,30.068
						c-8.306,12.122-13.081,25.723-13.813,39.333c-5.662,105.027,66.511,272.188,171.575,338.694
						c60.642,38.384,142.703,23.298,186.824-34.346l200.657-262.173c1.65-2.158,3.757-3.923,6.169-5.173
						c193.958-100.552,247.38-288.42,163.318-574.338c-1.409-4.788-0.82-9.941,1.631-14.287
						c54.712-97.051,41.428-304.207-27.336-426.265c-63.586-112.864-183.977-148.677-185.186-149.023
						c-9.795-2.825-15.466-13.052-12.659-22.852c2.81-9.8,13.005-15.466,22.813-12.683c5.518,1.572,135.986,39.963,207.229,166.419
						c66.665,118.33,93.083,335.527,31.091,455.583c41.218,143.206,48.921,261.035,23.555,359.99
						c-27.678,107.988-96.221,191.519-203.762,248.335l-198.174,258.928C2286.924,3198.125,2233.259,3222.565,2179.194,3222.57z"/>
				</g>
			</g>
			<g>
				<g>
					<path style="fill:#F8F8F8;" d="M1870.611,2060.36h389.788c34.946,0,63.275,28.329,63.275,63.275v236.017
						c0,34.334-27.381,62.403-61.705,63.255l-389.788,9.672c-35.549,0.882-64.844-27.695-64.844-63.255v-245.689
						C1807.337,2088.689,1835.666,2060.36,1870.611,2060.36z"/>
				</g>
			</g>
			<g>
				<g>
					<path style="fill:#371A45;" d="M1870.544,2451.076c-21.438,0-41.611-8.203-57.019-23.23
						c-15.906-15.518-24.668-36.301-24.668-58.523v-245.688c0-45.078,36.675-81.753,81.753-81.753h389.79
						c45.078,0,81.753,36.675,81.753,81.753v236.016c0,44.719-35.02,80.62-79.724,81.729l-389.79,9.67
						C1871.941,2451.066,1871.24,2451.076,1870.544,2451.076z M1870.61,2078.84c-24.7,0-44.795,20.095-44.795,44.795v245.688
						c0,12.178,4.8,23.567,13.516,32.068c8.716,8.501,20.173,13.074,32.39,12.715l389.79-9.67
						c24.497-0.608,43.684-20.281,43.684-44.785v-236.016c0-24.7-20.095-44.795-44.795-44.795H1870.61z"/>
				</g>
			</g>
			<g>
				<g>
					<path style="fill:#F8F8F8;" d="M1758.29,2064.631h389.788c34.946,0,63.275,28.329,63.275,63.275v236.017
						c0,34.334-27.381,62.404-61.705,63.255l-389.788,9.672c-35.549,0.882-64.844-27.695-64.844-63.255v-245.689
						C1695.015,2092.96,1723.344,2064.631,1758.29,2064.631z"/>
				</g>
			</g>
			<g>
				<g>
					<path style="fill:#371A45;" d="M2026.87,2448.161c-9.705,0.002-17.685-7.744-17.925-17.5
						c-0.774-31.692-1.716-81.353-0.803-106.946c-28.105-7.021-112.39-18.145-188.13-25.981c-8.821-0.913-15.649-8.132-16.072-16.99
						l-10.251-215.259c-0.471-9.897,7.168-18.301,17.063-18.772c9.927-0.437,18.298,7.168,18.772,17.065l9.519,199.878
						c189.382,20.115,197.312,31.128,202.107,37.778c3.218,4.465,4.392,10.061,3.215,15.352c-1.23,7.834-0.762,63.704,0.444,113
						c0.242,9.902-7.59,18.127-17.493,18.369C2027.168,2448.159,2027.016,2448.161,2026.87,2448.161z M2016.264,2326.303h0.049
						H2016.264z M2009.338,2309.04c-0.088,0.393-0.159,0.784-0.217,1.167C2009.189,2309.772,2009.262,2309.384,2009.338,2309.04z
						 M2009.341,2309.028c0,0.002-0.002,0.007-0.002,0.01C2009.338,2309.035,2009.341,2309.03,2009.341,2309.028z"/>
				</g>
			</g>
			<g>
				<g>
					<path style="fill:#371A45;" d="M1758.227,2455.349c-21.44,0-41.619-8.206-57.024-23.235
						c-15.906-15.515-24.668-36.299-24.668-58.521v-245.688c0-45.078,36.675-81.753,81.755-81.753h389.788
						c45.078,0,81.753,36.675,81.753,81.753v236.018c0,44.719-35.02,80.618-79.724,81.726l-389.79,9.673
						C1759.619,2455.339,1758.921,2455.349,1758.227,2455.349z M1758.291,2083.11c-24.702,0-44.797,20.095-44.797,44.795v245.688
						c0,12.178,4.8,23.564,13.516,32.068c8.716,8.503,20.303,12.988,32.39,12.717l389.79-9.673
						c24.497-0.608,43.684-20.278,43.684-44.783v-236.018c0-24.7-20.095-44.795-44.795-44.795H1758.291z"/>
				</g>
			</g>
			<g>
				<g>
					<path style="fill:#BCC4CC;" d="M2199.121,2291.663l-1.435,27.06c-0.922,17.476-15.016,31.365-32.543,32.031l-495.94,17.681
						l-685.512,24.497c-18.706,0.666-34.388-13.991-35.003-32.748l-0.871-28.136c-0.359-11.019,4.664-20.961,12.659-27.367h0.051
						c5.484-4.459,12.351-7.226,19.936-7.482l683.667-23.728l1.384-0.051l498.657-17.322
						C2184.002,2255.43,2200.146,2271.83,2199.121,2291.663z"/>
				</g>
			</g>
			<g style="opacity:0.61;">
				<g>
					<path style="fill:#FFFFFF;" d="M2199.121,2291.663l-0.974,18.757c-3.793-14.965-17.63-26.086-33.978-25.522l-498.195,17.323
						l-0.718-28.802l498.913-17.322C2184.002,2255.43,2200.146,2271.83,2199.121,2291.663z"/>
				</g>
			</g>
			<g>
				<g>
					<path style="fill:#BCC4CC;" d="M1670.227,2365.872l-1.128-0.103l-708.574-61.089h-0.051l-26.906-58.885l-204.536-447.51
						c-5.33-11.634-3.946-25.163,3.639-35.464l15.887-21.627c6.253-8.456,15.99-13.735,26.496-14.247l593.878-31.416
						c40.436-2.152,77.643,21.832,92.403,59.552l1.23,3.075l201.564,515.313l3.485,52.94L1670.227,2365.872z"/>
				</g>
			</g>
			<g style="opacity:0.61;">
				<g>
					<path style="fill:#FFFFFF;" d="M1664.692,2282.028l-193.108-493.634c-14.76-37.719-51.967-61.704-92.403-59.552
						l-593.878,31.416c-10.506,0.512-20.243,5.791-26.496,14.247l-15.887,21.627c-3.895,5.33-6.201,11.48-6.714,17.783
						l-7.175-15.631c-5.33-11.634-3.946-25.163,3.639-35.464l15.887-21.627c6.253-8.456,15.99-13.735,26.496-14.247l593.878-31.416
						c40.436-2.152,77.643,21.832,92.403,59.552l202.794,518.388L1664.692,2282.028z"/>
				</g>
			</g>
			<g>
				<g>
					<path style="fill:#371A45;" d="M982.453,2408.596c-12.578,0-24.492-4.695-33.728-13.333
						c-9.678-9.05-15.234-21.328-15.647-34.57l-0.874-28.162c-0.847-27.148,20.552-50.007,47.703-50.95l0,0l1183.726-41.111
						c13.845-0.5,27.292,4.9,36.982,14.761c9.688,9.861,14.829,23.433,14.106,37.236l-1.416,27.063
						c-1.353,25.774-21.819,45.906-47.61,46.826l-1181.431,42.207C983.659,2408.586,983.054,2408.596,982.453,2408.596z
						 M980.991,2312.832L980.991,2312.832c-9.978,0.347-17.844,8.748-17.532,18.726l0.874,28.162
						c0.151,4.866,2.195,9.38,5.752,12.708c3.557,3.328,8.196,5.034,13.062,4.888l1181.433-42.207
						c9.48-0.337,17.002-7.739,17.5-17.214l1.416-27.061c0.269-5.149-1.572-10.007-5.186-13.687
						c-3.613-3.677-8.406-5.632-13.594-5.425L980.991,2312.832z"/>
				</g>
			</g>
			<g>
				<g>
					<path style="fill:#371A45;" d="M1670.229,2381.489c-8.167,0-15.039-6.338-15.586-14.604l-5.947-89.978l-201.919-516.135
						c-12.317-31.487-43.32-51.413-77.034-49.651l-593.87,31.413c-5.864,0.31-11.226,3.201-14.705,7.932l-15.901,21.619
						c-4.199,5.708-4.978,13.254-2.034,19.697l231.436,506.404c3.591,7.854,0.134,17.129-7.72,20.718
						c-7.854,3.606-17.131,0.132-20.718-7.72L714.797,1804.78c-7.659-16.753-5.635-36.379,5.281-51.221l15.901-21.619
						c9.05-12.305,22.991-19.824,38.245-20.632l593.87-31.414c47.273-2.437,90.567,25.425,107.805,69.485l202.8,518.386
						c0.583,1.492,0.935,3.066,1.04,4.666l6.106,92.393c0.569,8.616-5.955,16.062-14.57,16.631
						C1670.925,2381.477,1670.576,2381.489,1670.229,2381.489z"/>
				</g>
			</g>
			<g style="opacity:0.25;">
				<g>
					<path style="fill:#371A45;" d="M1669.202,2368.435l-685.512,24.497c-18.706,0.666-34.388-13.991-35.003-32.748l-0.871-28.136
						c-0.359-11.019,4.664-20.961,12.659-27.367l-26.906-58.885c318.002-7.944,517.977-123.511,496.299-418.092v-87.124
						l32.697,17.578l201.564,515.313l1.384-0.051c0.769,18.86,1.486,36.746,2.101,52.992c0.564,14.657,1.076,27.931,1.486,39.359
						C1669.151,2366.692,1669.151,2367.563,1669.202,2368.435z"/>
				</g>
			</g>
			<g>
				<g>
					<g>
						<path style="fill:#F8F8F8;" d="M1054.825,2413.688c0,0,29.895-113.603,150.331-93.957
							c120.436,19.646,148.623,139.228,64.062,182.79c-84.562,43.562-353.621,36.729-319.454-176.81
							C949.764,2325.71,960.013,2388.063,1054.825,2413.688z"/>
					</g>
				</g>
				<g style="opacity:0.25;">
					<g>
						<path style="fill:#371A45;" d="M1269.201,2502.503c-58.424,30.084-204.895,36.131-278.592-33.415
							c71.391,19.116,153.697,9.789,194.03-10.967c56.989-29.366,62.78-93.274,23.575-137.81
							C1326.036,2341.426,1353.045,2459.3,1269.201,2502.503z"/>
					</g>
				</g>
				<g>
					<g>
						<path style="fill:#371A45;" d="M1158.498,2542.155c-56.689,0.002-118.44-12.839-163.284-45.322
							c-37.424-27.109-78.855-79.309-63.696-174.043c1.431-8.948,9.141-15.54,18.206-15.557c0.012,0,0.027-0.002,0.039-0.002
							c9.045,0,16.765,6.55,18.232,15.481c0.337,1.724,9.302,44.412,75.269,68.022c19.16-45.205,70.034-104.712,164.866-89.241
							c68.337,11.147,118.186,54.294,126.992,109.924c7.036,44.448-14.976,85.649-57.442,107.527
							C1250.259,2533.071,1206.167,2542.155,1158.498,2542.155z M967.502,2388.288c5.684,32.59,22.188,58.909,49.392,78.616
							c70.234,50.876,193.296,45.242,243.862,19.189c28.235-14.546,42.39-40.303,37.864-68.899
							c-4.761-30.066-32.873-68.857-96.438-79.226c-102.685-16.768-128.442,76.448-129.49,80.422
							c-1.253,4.761-4.351,8.823-8.611,11.289c-4.258,2.463-9.326,3.135-14.08,1.846
							C1011.36,2421.081,985.18,2404.821,967.502,2388.288z"/>
					</g>
				</g>
			</g>
			<g>
				<g>
					<g>
						<path style="fill:#F8F8F8;" d="M2435.278,2143.04c-6.765,57.297-31.569,112.902-67.188,140.218l-168.918-56.631
							c0,0-39.923,46.125-140.475,35.875c-100.602-10.25-146.727-112.134-146.727-112.134s-42.896,89.072-94.811,53.197
							c-14.145-9.789-20.961-21.832-23.216-34.44c-2.921-16.4,1.845-33.773,8.354-48.379c7.739-17.373,19.065-32.902,32.646-46.227
							l96.246-94.76c81.128-106.752,194.748-29.878,273.313,15.375h192.185C2431.332,2029.42,2441.94,2087.024,2435.278,2143.04z"/>
					</g>
				</g>
				<g>
					<g>
						<path style="fill:#371A45;" d="M2368.088,2301.728c-1.97,0-3.953-0.315-5.869-0.959l-158.716-53.198
							c-18.538,14.719-64.629,41.685-146.704,33.315c-75.435-7.688-122.51-60.574-145.283-94.453
							c-12.373,16.838-30.894,36.016-54.033,42.131c-17.351,4.595-34.927,1.199-50.83-9.797
							c-33.669-23.279-41.206-60.767-21.223-105.557c8.398-18.823,20.691-36.277,36.538-51.87l95.334-93.821
							c85.85-111.545,203.381-42.778,281.24,2.771c3.708,2.17,7.358,4.304,10.935,6.382h187.227c4.868,0,9.539,1.921,12.998,5.344
							c32.72,32.38,49.272,86.072,45.417,147.307c-4.441,70.5-34.187,136.675-75.781,168.586
							C2376.067,2300.419,2372.104,2301.728,2368.088,2301.728z M2199.17,2208.149c1.963,0,3.943,0.313,5.869,0.959l159.036,53.306
							c29.314-27.625,50.701-80.454,54.163-135.415c2.966-47.124-7.759-87.908-29.563-113.369h-184.155
							c-3.237,0-6.418-0.852-9.224-2.468c-5.002-2.881-10.146-5.891-15.415-8.972c-95.112-55.647-172.737-91.814-233.979-11.23
							c-0.535,0.703-1.121,1.367-1.751,1.987l-96.26,94.731c-12.542,12.344-22.202,26.001-28.711,40.591
							c-18.491,41.445,1.111,54.998,8.489,60.098c9.221,6.379,16.016,5.608,20.332,4.48c21.328-5.601,41.836-39.18,47.336-50.5
							c3.135-6.443,9.819-10.525,16.877-10.413c7.163,0.098,13.633,4.314,16.589,10.84c0.405,0.886,43.271,92.332,131.741,101.345
							c88.525,9.026,124.314-29.197,124.651-29.583C2188.769,2210.407,2193.901,2208.149,2199.17,2208.149z"/>
					</g>
				</g>
				<g>
					<g>
						<path style="fill:#371A45;" d="M1895.782,2141.485l68.719-86.543l-36.342,104.36c-3.405,9.775-14.088,14.941-23.863,11.536
							C1892.243,2166.896,1887.779,2151.233,1895.782,2141.485L1895.782,2141.485z"/>
					</g>
				</g>
				<g>
					<g>
						<polygon style="fill:#371A45;" points="2182.304,2219.073 2225.873,2174.097 2216.031,2234.18 2182.304,2219.073 						"/>
					</g>
				</g>
				<g style="opacity:0.25;">
					<g>
						<path style="fill:#371A45;" d="M2435.278,2143.04c-6.765,57.297-31.569,112.902-67.188,140.218l-168.918-56.631
							c0,0-39.923,46.125-140.475,35.875c-100.602-10.25-146.727-112.134-146.727-112.134s-42.896,89.072-94.811,53.197
							c-14.145-9.789-20.961-21.832-23.216-34.44l5.689-5.688c0,0,38.437,25.625,80.308-31.621
							c41-56.067,94.299-103.114,96.451-104.959c-1.333,3.28-42.947,107.419,41.051,156.208
							c85.433,49.558,188.802-86.253,188.802-86.253s61.499,53.812,210.123,46.125
							C2423.132,2142.579,2429.435,2142.63,2435.278,2143.04z"/>
					</g>
				</g>
			</g>
			<g>
				<g>
					<path style="fill:#371A45;" d="M1941.943,2731.29c52.788-38.01,136.98-76.206,200.399-43.322
						c29.269,17.603,54.567,41.503,76.635,67.14c21.646,25.191,40.333,52.476,55.583,81.387
						c-38.459-40.898-80.021-78.133-128.789-105.266c-18.338-10.004-37.518-17.744-58.677-18.152
						c-43.887,0.212-87.255,22.65-122.669,47.543C1944.574,2775.275,1922.543,2746.766,1941.943,2731.29L1941.943,2731.29z"/>
				</g>
			</g>
			<g>
				<g>
					<path style="fill:#371A45;" d="M2214.16,3218.569c-7.19,0-13.977-4.353-16.731-11.462c-3.579-9.236,1.008-19.626,10.247-23.206
						c4.719-1.829,11.409-5.762,15-18.75c18.389-66.509-65.994-242.686-129.683-324.468
						c-66.16-84.956-119.402-76.663-121.636-76.272c-9.678,2.08-19.065-4.141-21.133-13.831c-2.068-9.688,4.263-19.248,13.95-21.313
						c3.071-0.654,75.989-14.81,157.124,89.375c60.369,77.52,160.269,268.13,135.955,356.069
						c-5.764,20.847-18.428,35.593-36.619,42.642C2218.506,3218.178,2216.313,3218.569,2214.16,3218.569z"/>
				</g>
			</g>
			<g>
				<g>
					<path style="fill:#371A45;" d="M2099.966,2682.171c-0.36,0.347-0.689,0.735-0.974,1.145c-0.094,0.125-0.383,0.605-0.288,0.447
						c0.604-0.97,2.083-3.553,2.71-4.578c26.807-45.38,58.874-87.41,94.76-126.03c49.499-54.288,119.626-93.305,193.222-100.473
						c18.372-1.046,36.617-0.348,54.286,2.86c-17.946,1.375-35.424,3.97-52.238,8.762c-49.972,14.387-93.613,43.981-130.735,79.688
						c-12.369,11.809-25.061,23.266-37.371,35.337c-30.522,30.618-56.641,65.67-79.946,102.063
						c-2.105,3.386-8.219,13.233-10.191,16.641c0,0-1.693,2.861-1.693,2.861l-0.903,1.523
						C2116.983,2726.583,2082.85,2704.056,2099.966,2682.171L2099.966,2682.171z"/>
				</g>
			</g>
			<g>
				<g>
					<path style="fill:#371A45;" d="M2424.616,3003.168c-7.383,0-13.899-5.337-15.149-12.861
						c-30.334-182.776-144.551-331.475-254.604-331.475c-8.491,0-15.376-6.885-15.376-15.376s6.885-15.376,15.376-15.376
						c126.538,0,251.697,156.897,284.941,357.192c1.389,8.376-4.275,16.294-12.651,17.686
						C2426.301,3003.098,2425.454,3003.168,2424.616,3003.168z"/>
				</g>
			</g>
			<g>
				<g>
					<path style="fill:#371A45;" d="M2393.579,1976.939l102.653,1.128l-96.401,35.295
						C2371.499,2021.669,2364.094,1978.564,2393.579,1976.939L2393.579,1976.939z"/>
				</g>
			</g>
			<g>
				<g>
					<path style="fill:#371A45;" d="M2563.152,2344.741c-94.436,0-195.725-41.726-202.2-44.438
						c-9.409-3.94-13.843-14.761-9.905-24.175c3.938-9.412,14.756-13.855,24.175-9.915c61.016,25.503,232.209,76.16,290.823,5.264
						c6.499-7.869,18.152-8.972,26.013-2.468c7.866,6.501,8.972,18.149,2.468,26.013
						C2663.579,2332.458,2614.365,2344.741,2563.152,2344.741z"/>
				</g>
			</g>
			<g>
				<g>
					<path style="fill:#371A45;" d="M2339.639,1993.766l-4.434-83.176l39.982,73.071c5.024,9.18,1.653,20.696-7.528,25.72
						C2355.824,2016.235,2340.072,2007.316,2339.639,1993.766L2339.639,1993.766z"/>
				</g>
			</g>
			<g>
				<g>
					<path style="fill:#371A45;" d="M1705.153,2067.027c3.014-27.559,7.852-53.699,14.214-80.381
						c6.395-26.05,14.534-51.914,26.043-76.057c-8.298,38.897-8.725,78.192-6.699,117.48c0.749,12.923,1.807,26.208,3.404,38.508
						C1744.263,2093.99,1703.694,2094.539,1705.153,2067.027L1705.153,2067.027z"/>
				</g>
			</g>
			<g style="opacity:0.25;">
				<g>
					<path style="fill:#371A45;" d="M2680.301,2283.258c79.898,271.826,45.612,482.82-172.557,595.927l-200.641,262.192
						c-50.019,65.343-141.858,82.717-211.404,38.745c-61.704-39.052-113.825-111.826-145.907-188.598
						c5.996,4.817,12.043,10.096,18.142,15.784c208.38,194.748,186.907-87.124,186.907-87.124
						c200.077,172.864,96.4-111.57,94.76-116.182l74.055,58.117c0,0,17.527-46.125,172.556-181.935
						c155.081-135.811,64.062-297.247,64.062-297.247c-110.186,21.781-236.618-58.937-236.618-56.528
						c0,2.409-100.346-12.658-104.19-10.096c-3.844,2.563-0.871-83.178-0.871-83.178l158.617,53.709l58.065-143.806
						c41.922-0.615,134.273-0.974,134.273-0.974c105.317-220.372-89.942-341.065-89.942-341.065
						c-238.207,104.805-530.483,28.443-541.347,25.368l174.35-138.681c106.906-4.971,193.774,1.384,193.774,1.384l150.365-7.944
						c0,0,127.867,36.438,196.183,157.694C2721.301,1960.131,2741.8,2174.148,2680.301,2283.258z"/>
				</g>
			</g>
			<g style="opacity:0.25;">
				<g>
					<path style="fill:#371A45;" d="M2859.674,1662.885c0,0-0.512-0.205-1.537-0.615
						C2858.649,1662.013,2859.674,1662.885,2859.674,1662.885z"/>
				</g>
			</g>
			<g>
				<g>
					<g>
						<circle style="fill:#F8F8F8;" cx="2058.9" cy="1139.77" r="685.58"/>
					</g>
				</g>
				<g style="opacity:0.25;">
					<g>
						<path style="fill:#371A45;" d="M2699.803,1383.209c-134.481,354.004-530.416,531.936-884.367,397.475
							c-112.961-42.912-207.964-112.464-280.619-198.787c46.936,33.566,99.001,61.725,155.482,83.181
							c353.951,134.461,749.886-43.471,884.346-397.422c91.569-241.043,38.241-501.559-116.868-685.705
							C2705.152,758.583,2812.808,1085.739,2699.803,1383.209z"/>
					</g>
				</g>
				<g>
					<g>
						<path style="fill:#371A45;" d="M1422.365,1402.585c38.356,88.291,102.641,183.162,208.553,272.961
							c303.401,202.098,712.084,123.957,884.909-296.121l-27.302-348.16c-14.539-53.663-44.26-104.569-85.029-150.687
							c-249.961-282.578-914.379-385.579-1023.296,161.794C1380.2,1042.374,1336.917,1205.954,1422.365,1402.585z"/>
					</g>
				</g>
				<g style="opacity:0.7;">
					<g>
						<path style="fill:#111A28;" d="M1422.365,1402.585c38.356,88.291,102.641,183.162,208.553,272.961
							c303.401,202.098,712.084,123.957,884.909-296.121l-27.302-348.16c-14.539-53.663-44.26-104.569-85.029-150.687
							c91.677,475.861-492.807,959.812-976.906,524.078L1422.365,1402.585z"/>
					</g>
				</g>
				<g>
					<g>
						<path style="fill:#371A45;" d="M2030.781,1840.737c-13.235,0-26.709-0.435-40.496-1.336
							c-9.534-0.622-16.755-8.855-16.133-18.389c0.623-9.534,8.804-16.833,18.389-16.133
							c173.601,11.35,322.29-51.755,442.043-187.539c81.836-92.788,121.548-189.79,128.496-207.781l-14.583-429.199
							c-67.207-152.346-203.145-274.922-383.149-345.393c-184.268-72.136-384.075-75.652-534.487-9.407
							c-8.745,3.848-18.955-0.115-22.803-8.857c-3.853-8.743,0.115-18.953,8.857-22.803c158.655-69.878,368.391-66.567,561.042,8.85
							c189.817,74.312,333.145,204.585,403.582,366.821c0.867,1.992,1.348,4.131,1.421,6.301l14.812,435.96
							c0.076,2.175-0.261,4.343-0.991,6.392c-1.638,4.6-41.204,113.862-135.447,221.089
							C2379.026,1732.963,2239.001,1840.725,2030.781,1840.737z"/>
					</g>
				</g>
				<g>
					<g>
						<path style="fill:#371A45;" d="M1971.15,1798.933c-119.824,0.002-241.462-37.288-349.617-109.331
							c-7.771-5.178-9.873-15.674-4.697-23.445c5.176-7.773,15.679-9.871,23.445-4.7c149.761,99.761,326.438,129.241,484.736,80.898
							c163.545-49.951,296.111-179.729,373.64-365.649l-26.88-342.493c-27.019-97.803-111.973-193.957-233.342-264.026
							c-121.147-69.942-266.287-107.478-398.181-103.057c-138.42,4.665-380.1,60.049-443.506,378.552
							c-1.821,9.16-10.723,15.115-19.883,13.281c-9.158-1.821-15.105-10.725-13.281-19.883
							c49.636-249.346,222.961-397.236,475.53-405.749c295.41-9.915,606.384,173.955,665.718,393.557
							c0.273,1.008,0.452,2.044,0.532,3.086l27.322,348.13c0.208,2.646-0.21,5.303-1.218,7.756
							c-81.233,197.446-222.073,335.537-396.572,388.835C2081.721,1790.937,2026.626,1798.933,1971.15,1798.933z"/>
					</g>
				</g>
				<g>
					<g>
						<path style="fill:#371A45;" d="M2059.189,1846.489c-84.702,0-169.573-15.439-251.125-46.421
							c-364.089-138.313-547.773-547.046-409.463-911.133c66.999-176.375,198.674-316.099,370.767-393.435
							c172.087-77.339,363.999-83.03,540.369-16.028c364.089,138.313,547.773,547.046,409.46,911.135
							c-67,176.372-198.674,316.096-370.764,393.432C2255.915,1825.617,2157.668,1846.489,2059.189,1846.489z M2058.628,474.589
							c-92.7,0-185.156,19.641-272.244,58.777c-161.975,72.793-285.911,204.304-348.975,370.31
							c-130.181,342.691,42.707,727.4,385.396,857.583c166.013,63.062,346.636,57.703,508.608-15.085
							c161.975-72.793,285.911-204.304,348.975-370.308l19.404,7.371l-19.404-7.371c130.183-342.691-42.705-727.402-385.393-857.586
							C2218.242,489.125,2138.342,474.589,2058.628,474.589z"/>
					</g>
				</g>
				<g>
					<g>
						<g>
							<path style="fill:#F8F8F8;" d="M2766.792,1191.793c1.616,122.941-59.444,221.977-155.077,223.234
								s-174.469-97.388-176.085-220.329c-1.616-122.941,74.6-223.624,170.232-224.881
								C2701.495,968.559,2765.175,1068.852,2766.792,1191.793z"/>
						</g>
					</g>
					<g style="opacity:0.25;">
						<g>
							<path style="fill:#371A45;" d="M2611.688,1415.031c-95.609,1.24-174.446-97.379-176.038-220.313
								c-0.513-38.962,6.769-75.746,20.079-107.768c15.849,103.812,87.689,181.807,172.75,180.72
								c63.271-0.864,111.415-44.433,136.291-109.442c1.207,10.949,1.884,22.179,2.02,33.566
								C2768.383,1314.727,2707.371,1413.758,2611.688,1415.031z"/>
						</g>
					</g>
					<g>
						<g>
							<path style="fill:#371A45;" d="M2609.875,1435.796c-52.012,0.002-100.828-25.293-137.676-71.399
								c-36.125-45.203-56.484-105.374-57.327-169.426c-1.763-134.19,83.792-244.504,190.715-245.911
								c52.151-0.544,99.6,25.344,133.025,73.301c30.701,44.05,48.081,104.126,48.936,169.16
								c1.843,140.173-71.992,242.9-175.562,244.263C2611.284,1435.793,2610.576,1435.796,2609.875,1435.796z M2607.654,990.563
								c-0.508,0-1.008,0.003-1.519,0.01c-84.036,1.104-151.213,92.551-149.749,203.85c0.72,54.868,17.854,106.028,48.245,144.053
								c29.172,36.501,67.1,56.326,106.809,55.794c79.517-1.045,136.123-86.084,134.595-202.202
								c-0.747-56.819-15.479-108.657-41.482-145.967C2686.838,1020.681,2655.696,990.563,2607.654,990.563z"/>
						</g>
					</g>
					<g>
						<g>
							<path style="fill:#371A45;" d="M2669.526,1400.532c-83.687,0-152.761-93.457-154.319-209.304
								c-0.708-55.361,13.84-107.813,40.962-147.7c28.42-41.797,67.231-65.11,109.287-65.647c8.489-0.107,17.065,0.796,25.43,2.656
								c0.732,0.161,1.453,0.371,2.156,0.627c8.979,3.264,13.638,13.201,10.374,22.178c-3.064,8.428-11.987,13.025-20.479,10.869
								c-5.63-1.218-11.416-1.792-17.061-1.736c-30.408,0.388-59.216,18.325-81.099,50.505
								c-23.171,34.082-35.593,79.465-34.976,127.793c1.301,96.911,54.89,175.161,119.683,175.161c0.361,0,0.718-0.002,1.082-0.007
								c8.862-0.122,17.4-1.692,25.369-4.665c8.965-3.345,18.916,1.206,22.256,10.156s-1.206,18.916-10.156,22.256
								c-11.702,4.368-24.15,6.67-37,6.848C2670.537,1400.527,2670.024,1400.532,2669.526,1400.532z"/>
						</g>
					</g>
				</g>
				<g style="opacity:0.5;">
					<g>
						<path style="fill:#FFFFFF;" d="M1885.28,774.288c-203.308,126.721-321.417,302.327-342.397,533.663
							c-1.682,18.55-27.942,21.09-33.106,3.194c-84.68-293.432-43.066-547.137,365.617-568.177
							C1892.907,742.066,1900.162,765.012,1885.28,774.288z"/>
					</g>
				</g>
				<g style="opacity:0.5;">
					<g>
						<path style="fill:#FFFFFF;" d="M2280.775,1202.969l-3.626,0.3c-33.171,2.739-62.962-20.205-68.923-52.951
							c-0.682-3.749-1.385-7.379-2.1-10.883c-7.116-34.892,15.034-69.02,49.917-76.181l2.737-0.562
							c32.642-6.701,65.037,12.531,74.844,44.379c1.442,4.683,2.809,9.346,4.103,13.988
							C2348.639,1160.21,2321.281,1199.625,2280.775,1202.969z"/>
					</g>
				</g>
				<g style="opacity:0.5;">
					<g>
						<path style="fill:#FFFFFF;" d="M2148.324,1595.454L2148.324,1595.454c-31.324-18.758-40.966-59.778-21.12-90.424
							c34.011-52.519,53.903-105.694,64.617-155.869c7.522-35.226,41.709-57.994,76.929-50.441c3.024,0.649,6.05,1.297,9.071,1.945
							c35.543,7.616,58.069,43.106,49.306,78.385c-21.824,87.854-62.847,156.724-93.177,198.797
							C2214.321,1605.074,2177.121,1612.7,2148.324,1595.454z"/>
					</g>
				</g>
			</g>
			<g style="opacity:0.25;">
				<g>
					<path style="fill:#371A45;" d="M1807.337,2620.732c0,0,227.206,63.724,404.016-67.816l-81.875,122.145l-29.165,19.28
						c-61.618,3.437-111.613,17.448-142.86,48.515C1894.879,2719.931,1843.118,2681.668,1807.337,2620.732z"/>
				</g>
			</g>
			<g style="opacity:0.25;">
				<g>
					<path style="fill:#371A45;" d="M1734.791,1949.651c0,0-76.727,68.494-116.975,205.407l52.428,113.424l18.364-12.407
						c0,0,8.542-141.555,6.406-144.117s22.823-28.828,28.601-66.624c5.778-37.796,5.368-61.081,5.368-61.081"/>
				</g>
			</g>
			<g>
				<g>
					<path style="fill:#371A45;" d="M1332.59,2734.903l31.012,70.842l-60.344-48.362c-8.201-6.572-9.521-18.55-2.948-26.75
						C1308.787,2719.477,1327.32,2722.069,1332.59,2734.903L1332.59,2734.903z"/>
				</g>
			</g>
			<g>
				<g>
					<path style="fill:#371A45;" d="M2581.189,1765.07c-3.999,0-8.027-1.294-11.414-3.958c-8.02-6.311-9.407-17.927-3.096-25.947
						c87.661-111.399,222.605-92.08,228.308-91.208c10.085,1.553,17.004,10.986,15.454,21.074
						c-1.55,10.071-10.969,16.975-21.033,15.459c-4.905-0.732-119.634-16.582-193.687,77.527
						C2592.077,1762.651,2586.66,1765.07,2581.189,1765.07z"/>
				</g>
			</g>
			<g style="opacity:0.25;">
				<g>
					<path style="fill:#371A45;" d="M2588.496,1592.174c0,0-105.095,48.389,42.247,208.814
						c-52.94-54.2-107.875-96.411-166.347-117.358l81.363-96.548"/>
				</g>
			</g>
			<g>
				<g>
					<g>
						<g>
							<g>
								<path style="fill:#FFFFFF;" d="M1265.87,1914.869c2.326,5.085,4.307,10.244,5.943,15.447
									c-21.507,17.549-64.038,42.168-114.869,65.422c-50.827,23.252-97.268,39.335-124.608,44.132
									c-2.866-4.64-5.474-9.511-7.801-14.597c-0.109-0.239-0.217-0.474-0.322-0.715c-1.016-2.247-1.959-4.505-2.833-6.777
									c-2.058-5.316-3.746-10.694-5.08-16.103c-0.055-0.219-0.109-0.438-0.159-0.659c-1.938-8.043-3.093-16.149-3.499-24.229
									c-0.774-15.372,1.157-30.631,5.542-45.118c10.648-35.172,35.769-65.777,71.818-82.268
									c35.753-16.356,74.988-15.504,108.381-0.905c13.711,5.987,26.437,14.298,37.535,24.68c5.937,5.55,11.406,11.7,16.31,18.403
									c0.399,0.538,0.789,1.08,1.176,1.629c3.22,4.546,6.185,9.34,8.861,14.373c0.995,1.865,1.95,3.766,2.862,5.697
									C1265.378,1913.806,1265.626,1914.334,1265.87,1914.869z"/>
							</g>
						</g>
						<g>
							<g>
								<path style="fill:#FFFFFF;" d="M1277.419,1981.534c-0.474,5.413-1.276,10.778-2.408,16.067
									c-1.575,7.432-3.794,14.71-6.61,21.751c-12.21,30.542-35.727,56.618-67.999,71.382
									c-32.342,14.796-67.536,15.51-98.676,4.708c-6.839-2.374-13.483-5.303-19.853-8.76c-4.999-2.706-9.825-5.74-14.456-9.079
									c32.511-8.326,70.07-21.69,108.924-39.464C1215.191,2020.366,1249.861,2000.687,1277.419,1981.534z"/>
							</g>
						</g>
						<g>
							<g>
								<path style="fill:#FFFFFF;" d="M1271.813,1930.315c-21.502,17.547-64.037,42.171-114.866,65.422
									c-50.828,23.252-97.274,39.335-124.614,44.135c-2.86-4.646-5.468-9.516-7.801-14.6c-0.11-0.241-0.212-0.473-0.322-0.713
									c-1.012-2.252-1.958-4.505-2.828-6.777c-2.057-5.314-3.745-10.692-5.084-16.104c-0.054-0.219-0.108-0.438-0.154-0.657
									c-1.937-8.046-3.094-16.152-3.504-24.23c-0.769-15.37,1.162-30.631,5.544-45.123c8.615-28.446,26.684-53.896,52.359-71.314
									c-6.682,10.392-11.871,21.662-15.434,33.437c-4.39,14.491-6.32,29.744-5.544,45.123c0.402,8.078,1.559,16.184,3.497,24.221
									c0.053,0.227,0.107,0.446,0.161,0.666c0.071,0.289,0.171,0.648,0.295,1.067c6.766,22.8,31.314,32.343,54.999,30.194
									c45.148-4.095,142.904-56.936,163.699-69.127C1273.657,1929.437,1270.69,1926.759,1271.813,1930.315z"/>
							</g>
						</g>
						<g>
							<g>
								<path style="fill:#FFFFFF;" d="M1046.236,1928.287"/>
							</g>
						</g>
						<g>
							<g>
								<path style="fill:#FFFFFF;" d="M1176.342,2038.139c38.849-17.773,73.52-37.451,101.077-56.605
									c-0.474,5.413-1.276,10.778-2.408,16.067c-21.204,15.544-55.106,34.769-94.603,52.838
									c-37.831,17.307-73.111,30.036-98.535,36.244c-4.999-2.706-9.825-5.74-14.456-9.079
									C1099.929,2069.277,1137.488,2055.913,1176.342,2038.139z"/>
							</g>
						</g>
						<g>
							<g>
								<path style="fill:#FFFFFF;" d="M1265.126,1913.281c0.252,0.526,0.499,1.054,0.744,1.589
									c2.326,5.085,4.307,10.244,5.943,15.447c-21.507,17.549-64.038,42.168-114.869,65.422
									c-50.827,23.252-97.268,39.335-124.608,44.132c-2.866-4.64-5.474-9.511-7.801-14.597c-0.109-0.239-0.217-0.474-0.322-0.715
									c25.931-2.979,73.209-18.548,125.026-42.252C1203.101,1957.665,1247.112,1930.985,1265.126,1913.281z"/>
							</g>
						</g>
						<g>
							<g>
								<g>
									<path style="fill:#FFFFFF;" d="M1012.43,1981.257l0.424-8.934c18.087,0.86,65.326-14.372,114.874-37.039
										c59.112-27.042,97.255-52.893,104.382-64.452l7.615,4.695c-9.43,15.295-52.942,42.578-108.274,67.891
										C1079.932,1966.986,1032.102,1982.193,1012.43,1981.257z"/>
								</g>
							</g>
						</g>
						<g>
							<g>
								<g>
									<path style="fill:#FFFFFF;" d="M1018.859,1936.093l-1.353-8.842c20.326-3.109,55.541-15.373,91.903-32.008
										c38.101-17.43,71.047-36.615,85.978-50.068l5.988,6.646c-15.561,14.019-49.374,33.774-88.244,51.555
										C1076.069,1920.332,1039.945,1932.868,1018.859,1936.093z"/>
								</g>
							</g>
						</g>
						<g>
							<g>
								<g>
									<path style="fill:#FFFFFF;" d="M1016.137,2005.492l0.006-8.945c20.754,0.011,69.565-15.932,121.461-39.673
										c54.435-24.903,100.08-52.831,110.999-67.915l7.247,5.245c-11.92,16.466-57.944,44.921-114.524,70.804
										C1087.541,1989.613,1038.401,2005.504,1016.137,2005.492z"/>
								</g>
							</g>
						</g>
						<g>
							<g>
								<g>
									<path style="fill:#FFFFFF;" d="M1101.896,2097.673l-0.17-2.224l-1.051-1.98l0.411-0.218l0.469-0.039
										c17.941-1.369,52.109-12.582,87.047-28.564c35.131-16.072,65.108-34.04,78.233-46.893l3.129,3.195
										c-13.469,13.19-43.932,31.492-79.501,47.765C1154.543,2085.148,1120.605,2096.244,1101.896,2097.673z"/>
								</g>
							</g>
						</g>
						<g>
							<g>
								<path style="fill:#FFFFFF;" d="M1277.419,1981.534c-4.026,46.013-32.007,88.61-77.016,109.2
									c-45.009,20.59-95.534,13.908-132.985-13.131c32.511-8.326,70.07-21.69,108.924-39.464
									C1215.191,2020.366,1249.861,2000.687,1277.419,1981.534z"/>
							</g>
						</g>
						<g>
							<g>
								<path style="fill:#FFFFFF;" d="M1342.152,1900.645c8.087,17.677-18.188,48.538-64.734,80.888
									c-27.558,19.154-62.228,38.832-101.077,56.605c-38.854,17.775-76.413,31.139-108.924,39.464
									c-54.911,14.063-95.437,13.762-103.523-3.916c-7.344-16.054,13.644-42.97,52.406-72.009
									c1.334,5.409,3.022,10.786,5.08,16.103c-10.713,8.838-15.976,15.836-14.12,19.894c1.891,4.133,10.926,4.674,25.076,2.195
									c27.34-4.797,73.782-20.88,124.608-44.132c50.831-23.254,93.362-47.873,114.869-65.422
									c11.123-9.082,16.622-16.273,14.731-20.406c-1.854-4.053-10.592-4.651-24.279-2.327c-2.677-5.033-5.641-9.827-8.861-14.373
									C1300.72,1882.871,1334.808,1884.592,1342.152,1900.645z"/>
							</g>
						</g>
						<g>
							<g>
								<path style="fill:#FFFFFF;" d="M1020.563,2015.628c0.269,0.719,0.538,1.438,0.82,2.159
									c-10.717,8.834-15.986,15.824-14.127,19.885c1.897,4.143,10.939,4.681,25.08,2.197
									c18.131-3.179,44.684-11.331,75.343-23.249c-0.488,2.68-0.493,5.207,0.007,7.532c-11.835,4.444-23.307,8.372-34.188,11.717
									c-47.312,14.54-71.979,14.336-74.88,7.992C996.919,2040.158,1001.833,2030.814,1020.563,2015.628z"/>
							</g>
						</g>
						<g>
							<g>
								<path style="fill:#FFFFFF;" d="M1017.04,2009.186l1.128,1.417c-9.634,7.474-17.074,14.159-22.665,20.039
									C999.671,2024.472,1006.837,2017.348,1017.04,2009.186z"/>
							</g>
						</g>
						<g>
							<g>
								<path style="fill:#FFFFFF;" d="M1019.299,2012.007l-1.131-1.404c0.163-0.14,0.35-0.276,0.538-0.413L1019.299,2012.007z"/>
							</g>
						</g>
						<g>
							<g>
								<path style="fill:#FFFFFF;" d="M995.503,2030.641c-4.373,6.418-5.493,11.793-3.465,16.237
									c1.984,4.322,6.642,6.745,13.092,7.766c16.823,2.664,45.772-4.253,70.488-11.853c11.19-3.436,22.989-7.491,35.162-12.06
									c2.341,2.949,5.818,5.261,10.321,6.97c-17.988,6.866-35.439,12.68-51.787,17.253c-58.286,16.3-83.608,11.92-87.592,3.222
									C979.513,2053.345,982.703,2044.085,995.503,2030.641z"/>
							</g>
						</g>
						<g>
							<g>
								<path style="fill:#FFFFFF;" d="M1173.949,2039.227c-37.999,17.241-74.686,30.221-106.536,38.376
									c-54.908,14.065-95.439,13.761-103.527-3.922c-7.339-16.046,13.658-42.961,52.415-72.004
									c0.396,1.607,0.832,3.208,1.293,4.813l-2.21-2.89c-22.499,17.219-47.752,41.188-40.238,57.58
									c2.902,6.344,9.776,9.769,18.866,11.208c21.396,3.375,54.985-4.237,77.25-10.463c19.539-5.458,40.621-12.677,62.267-21.286
									C1144.302,2042.013,1158.015,2041.504,1173.949,2039.227z"/>
							</g>
						</g>
						<g>
							<g>
								<g>
									<path style="fill:#FFFFFF;" d="M1110.781,2030.731c-12.173,4.57-23.972,8.624-35.162,12.06
										c-24.716,7.6-53.664,14.517-70.488,11.853c-6.45-1.021-11.109-3.444-13.092-7.766c-2.028-4.444-0.909-9.819,3.465-16.237
										c5.59-5.88,13.031-12.565,22.665-20.039l1.131,1.404c0.408,1.214,0.83,2.416,1.265,3.621
										c-18.73,15.186-23.644,24.53-21.945,28.233c2.901,6.344,27.569,6.548,74.88-7.992c10.882-3.344,22.354-7.272,34.188-11.717
										c0.238,1.161,0.599,2.265,1.082,3.324C1109.3,2028.633,1109.97,2029.722,1110.781,2030.731z"/>
								</g>
							</g>
							<g>
								<g>
									<path style="fill:#FFFFFF;" d="M1018.168,2010.603c-9.634,7.474-17.074,14.159-22.665,20.039
										c4.168-6.169,11.334-13.293,21.536-21.456L1018.168,2010.603z"/>
								</g>
							</g>
							<g>
								<g>
									<path style="fill:#FFFFFF;" d="M1019.299,2012.007l2.26,2.822c-0.336,0.266-0.672,0.532-0.995,0.8
										C1020.129,2014.423,1019.707,2013.22,1019.299,2012.007z"/>
								</g>
							</g>
							<g>
								<g>
									<path style="fill:#FFFFFF;" d="M1245.726,1964.979c-23.721,14.855-52.324,30.073-82.737,43.983
										c-17.683,8.088-35.301,15.434-52.209,21.768c-0.81-1.009-1.48-2.098-2.012-3.255c-0.483-1.059-0.844-2.163-1.082-3.324
										c16.917-6.308,34.573-13.66,52.298-21.767c30.126-13.79,58.448-28.848,81.888-43.543
										c41.935-26.293,57.906-45.094,55.015-51.423c-1.737-3.785-12.346-6.193-36.966-1.616l-0.991-5.352l-0.331-1.776
										c12.902-2.399,23.005-3.161,30.41-2.282c7.654,0.918,12.427,3.589,14.458,8.008
										C1310.627,1920.049,1276.013,1945.982,1245.726,1964.979z"/>
								</g>
							</g>
						</g>
						<g>
							<g>
								<g>
									<path style="fill:#FFFFFF;" d="M1133.529,2040.639c-21.646,8.61-42.728,15.828-62.267,21.286
										c-22.265,6.227-55.855,13.839-77.25,10.463c-9.09-1.439-15.964-4.864-18.866-11.208
										c-7.514-16.392,17.739-40.361,40.238-57.58l2.21,2.89c0.352,1.243,0.719,2.475,1.112,3.699
										c-0.188,0.136-0.375,0.272-0.538,0.413l-1.128-1.417c-10.202,8.162-17.368,15.286-21.536,21.456
										c-12.8,13.444-15.99,22.704-13.781,27.534c3.984,8.698,29.305,13.078,87.592-3.222
										c16.348-4.572,33.799-10.387,51.787-17.253C1124.628,2039.051,1128.788,2040.029,1133.529,2040.639z"/>
								</g>
							</g>
							<g>
								<g>
									<path style="fill:#FFFFFF;" d="M1017.04,2009.186l1.128,1.417c-9.634,7.474-17.074,14.159-22.665,20.039
										C999.671,2024.472,1006.837,2017.348,1017.04,2009.186z"/>
								</g>
							</g>
							<g>
								<g>
									<path style="fill:#FFFFFF;" d="M1017.594,2006.491l2.189,2.861c-0.365,0.287-0.727,0.561-1.077,0.838
										C1018.313,2008.966,1017.946,2007.734,1017.594,2006.491z"/>
								</g>
							</g>
							<g>
								<g>
									<path style="fill:#FFFFFF;" d="M1263.044,1974.193c-26.373,17.499-58.446,35.039-92.754,50.732
										c-12.318,5.645-24.625,10.895-36.761,15.713c-4.741-0.61-8.901-1.588-12.427-2.938c15.132-5.76,30.65-12.264,46.186-19.365
										c33.963-15.531,65.687-32.884,91.759-50.175c50.445-33.447,63.686-55.475,59.714-64.172
										c-2.211-4.818-11.272-8.461-29.752-7.596c-8.128,0.385-18.08,1.643-30.078,4.058c-0.66,0.138-1.332,0.274-2.005,0.41
										l-1.469-7.087c27.733-5.769,62.382-9.193,69.883,7.198C1335.089,1922.276,1290.499,1955.985,1263.044,1974.193z"/>
								</g>
							</g>
						</g>
						<g>
							<g>
								<path style="fill:#FFFFFF;" d="M1342.152,1900.645c8.087,17.677-18.188,48.538-64.734,80.888
									c-27.558,19.154-62.228,38.832-101.077,56.605c-38.854,17.775-76.413,31.139-108.924,39.464
									c-54.911,14.063-95.437,13.762-103.523-3.916c-7.344-16.054,13.644-42.97,52.406-72.009
									c1.334,5.409,3.022,10.786,5.08,16.103c-10.713,8.838-15.976,15.836-14.12,19.894c1.891,4.133,10.926,4.674,25.076,2.195
									c27.34-4.797,73.782-20.88,124.608-44.132c50.831-23.254,93.362-47.873,114.869-65.422
									c11.123-9.082,16.622-16.273,14.731-20.406c-1.854-4.053-10.592-4.651-24.279-2.327c-2.677-5.033-5.641-9.827-8.861-14.373
									C1300.72,1882.871,1334.808,1884.592,1342.152,1900.645z"/>
							</g>
						</g>
						<g style="opacity:0.41;">
							<g>
								<g>
									<path style="fill:#FFFFFF;" d="M1271.848,1930.769c-2.503,2.044-5.286,4.177-8.341,6.4
										c-1.253-3.485-2.664-6.951-4.227-10.374c-0.248-0.533-0.496-1.059-0.744-1.584c-0.909-1.937-1.863-3.837-2.861-5.701
										c-2.676-5.033-5.645-9.829-8.86-14.375c-0.386-0.547-0.782-1.085-1.177-1.624c-4.903-6.704-10.375-12.859-16.316-18.406
										c-11.098-10.38-23.819-18.693-37.53-24.675c-33.398-14.599-72.633-15.457-108.385,0.902
										c-23.866,10.92-42.947,28.03-56.205,48.56c13.131-25.6,34.638-47.133,62.839-60.035
										c35.752-16.351,74.987-15.501,108.377-0.903c13.71,5.99,26.44,14.296,37.537,24.684
										c5.932,5.547,11.405,11.693,16.308,18.398c0.403,0.54,0.79,1.086,1.176,1.632c3.223,4.548,6.185,9.335,8.861,14.368
										c0.998,1.871,1.952,3.771,2.862,5.701c0.256,0.526,0.505,1.052,0.743,1.593
										C1268.229,1920.41,1270.21,1925.568,1271.848,1930.769z"/>
								</g>
							</g>
						</g>
						<g>
							<g>
								<path style="fill:#FFFFFF;" d="M1265.87,1914.869c2.326,5.085,4.307,10.244,5.943,15.447
									c-21.507,17.549-64.038,42.168-114.869,65.422c-50.827,23.252-97.268,39.335-124.608,44.132
									c-2.866-4.64-5.474-9.511-7.801-14.597c-1.135-2.482-2.187-4.979-3.155-7.492c-2.058-5.316-3.746-10.694-5.08-16.103
									c-14.948-60.678,14.791-125.325,73.701-152.275s127.268-7.179,163.403,43.807c3.22,4.546,6.185,9.34,8.861,14.373
									C1263.533,1909.959,1264.735,1912.387,1265.87,1914.869z"/>
							</g>
						</g>
					</g>
				</g>
				<g>
					<g>
						<g>
							<g>
								<path style="fill:#FFB200;" d="M1255.113,1920.131c2.105,4.601,3.896,9.268,5.377,13.974
									c-19.457,15.876-57.933,38.148-103.919,59.186c-45.982,21.035-87.996,35.585-112.73,39.925
									c-2.593-4.198-4.953-8.605-7.057-13.205c-0.099-0.216-0.196-0.429-0.291-0.647c-0.92-2.033-1.772-4.075-2.563-6.131
									c-1.861-4.81-3.389-9.674-4.596-14.568c-0.05-0.198-0.099-0.396-0.144-0.596c-1.753-7.276-2.798-14.61-3.166-21.92
									c-0.701-13.907,1.047-27.712,5.013-40.818c9.633-31.819,32.359-59.507,64.972-74.426
									c32.345-14.797,67.84-14.026,98.05-0.819c12.404,5.417,23.917,12.935,33.957,22.328
									c5.371,5.021,10.318,10.584,14.755,16.649c0.361,0.487,0.714,0.977,1.064,1.474c2.913,4.113,5.595,8.45,8.017,13.003
									c0.9,1.687,1.764,3.407,2.589,5.154C1254.668,1919.169,1254.892,1919.647,1255.113,1920.131z"/>
							</g>
						</g>
						<g>
							<g>
								<path style="fill:#FF9100;" d="M1265.561,1980.441c-0.428,4.897-1.154,9.751-2.178,14.536
									c-1.425,6.724-3.432,13.308-5.98,19.678c-11.046,27.631-32.321,51.221-61.517,64.577
									c-29.26,13.385-61.098,14.031-89.27,4.26c-6.187-2.148-12.198-4.797-17.96-7.925c-4.523-2.448-8.889-5.193-13.078-8.213
									c29.412-7.532,63.391-19.622,98.541-35.703C1209.265,2015.572,1240.63,1997.769,1265.561,1980.441z"/>
							</g>
						</g>
						<g>
							<g>
								<path style="fill:#FF9100;" d="M1260.489,1934.104c-19.453,15.874-57.933,38.151-103.917,59.186
									c-45.983,21.035-88.001,35.586-112.735,39.928c-2.587-4.203-4.947-8.609-7.058-13.208c-0.099-0.218-0.192-0.428-0.291-0.645
									c-0.916-2.037-1.771-4.076-2.559-6.131c-1.861-4.807-3.388-9.673-4.6-14.569c-0.049-0.198-0.098-0.396-0.139-0.594
									c-1.753-7.279-2.799-14.612-3.17-21.921c-0.696-13.904,1.052-27.711,5.016-40.821c7.794-25.734,24.14-48.758,47.368-64.516
									c-6.045,9.401-10.74,19.598-13.963,30.25c-3.971,13.11-5.718,26.909-5.016,40.821c0.364,7.308,1.411,14.641,3.164,21.913
									c0.048,0.206,0.097,0.404,0.146,0.602c0.065,0.262,0.154,0.586,0.267,0.965c6.121,20.626,28.329,29.26,49.757,27.316
									c40.844-3.704,129.282-51.509,148.095-62.538C1262.157,1933.31,1259.473,1930.888,1260.489,1934.104z"/>
							</g>
						</g>
						<g>
							<g>
								<path style="fill:none;stroke:#293856;stroke-width:10.0308;stroke-linecap:round;stroke-miterlimit:10;" d="
									M1056.415,1932.27"/>
							</g>
						</g>
						<g>
							<g>
								<path style="fill:#D66B09;" d="M1174.119,2031.65c35.146-16.078,66.511-33.881,91.442-51.209
									c-0.428,4.897-1.154,9.751-2.178,14.536c-19.183,14.062-49.853,31.455-85.585,47.801
									c-34.225,15.657-66.141,27.173-89.142,32.789c-4.523-2.448-8.889-5.193-13.078-8.213
									C1104.99,2059.82,1138.968,2047.73,1174.119,2031.65z"/>
							</g>
						</g>
						<g>
							<g>
								<path style="fill:#D66B09;" d="M1254.44,1918.694c0.228,0.476,0.452,0.953,0.673,1.437
									c2.105,4.601,3.896,9.268,5.377,13.974c-19.457,15.876-57.933,38.148-103.919,59.186
									c-45.982,21.035-87.996,35.585-112.73,39.925c-2.593-4.198-4.953-8.605-7.057-13.205c-0.099-0.216-0.196-0.429-0.291-0.647
									c23.459-2.695,66.231-16.78,113.108-38.225C1198.328,1958.847,1238.143,1934.71,1254.44,1918.694z"/>
							</g>
						</g>
						<g>
							<g>
								<g>
									<path style="fill:#D66B09;" d="M1025.831,1980.191l0.384-8.083c16.363,0.778,59.099-13.002,103.924-33.508
										c53.478-24.465,87.984-47.852,94.432-58.309l6.889,4.247c-8.531,13.837-47.896,38.52-97.953,61.42
										C1086.899,1967.28,1043.628,1981.037,1025.831,1980.191z"/>
								</g>
							</g>
						</g>
						<g>
							<g>
								<g>
									<path style="fill:#D66B09;" d="M1031.648,1939.332l-1.224-7.999c18.388-2.812,50.246-13.907,83.143-28.957
										c34.469-15.768,64.274-33.125,77.782-45.295l5.417,6.013c-14.077,12.682-44.667,30.554-79.832,46.641
										C1083.404,1925.073,1050.724,1936.414,1031.648,1939.332z"/>
								</g>
							</g>
						</g>
						<g>
							<g>
								<g>
									<path style="fill:#D66B09;" d="M1029.185,2002.115l0.005-8.093c18.776,0.01,62.934-14.414,109.883-35.891
										c49.246-22.529,90.54-47.795,100.419-61.441l6.556,4.745c-10.784,14.896-52.421,40.639-103.607,64.055
										C1093.783,1987.75,1049.327,2002.126,1029.185,2002.115z"/>
								</g>
							</g>
						</g>
						<g>
							<g>
								<g>
									<path style="fill:#D66B09;" d="M1106.77,2085.509l-0.153-2.012l-0.951-1.792l0.372-0.197l0.425-0.035
										c16.231-1.239,47.142-11.383,78.75-25.842c31.782-14.54,58.902-30.795,70.776-42.423l2.831,2.891
										c-12.185,11.933-39.745,28.49-71.923,43.212C1154.398,2074.179,1123.695,2084.217,1106.77,2085.509z"/>
								</g>
							</g>
						</g>
						<g>
							<g>
								<path style="fill:#371A45;" d="M1146.013,2095.092c-25.923,0-51.689-8.02-73.372-23.672l-8.682-6.27l10.374-2.656
									c30.178-7.727,63.962-19.971,97.698-35.405c33.733-15.432,65.083-32.986,90.669-50.767l8.792-6.111l-0.935,10.667
									c-3.918,44.792-31.731,84.226-72.583,102.912C1181.416,2091.364,1163.677,2095.092,1146.013,2095.092z M1087.707,2069.277
									c32.148,18.826,71.863,21.057,106.091,5.393c34.233-15.659,58.513-47.161,65.291-83.796
									c-24.189,15.93-52.61,31.487-82.883,45.337C1145.925,2050.063,1115.571,2061.396,1087.707,2069.277z"/>
							</g>
						</g>
						<g>
							<g>
								<path style="fill:#FFD766;" d="M1324.124,1907.263c7.316,15.992-16.455,43.911-58.563,73.178
									c-24.931,17.328-56.296,35.131-91.442,51.209c-35.151,16.08-69.129,28.17-98.541,35.703
									c-49.677,12.722-86.339,12.45-93.655-3.542c-6.644-14.524,12.344-38.874,47.41-65.145c1.207,4.893,2.734,9.758,4.596,14.568
									c-9.692,7.996-14.453,14.326-12.774,17.997c1.711,3.739,9.885,4.229,22.685,1.986c24.734-4.34,66.749-18.89,112.73-39.925
									c45.986-21.037,84.463-43.31,103.919-59.186c10.063-8.217,15.037-14.721,13.327-18.461
									c-1.677-3.667-9.583-4.208-21.965-2.105c-2.422-4.553-5.104-8.89-8.017-13.003
									C1286.641,1891.183,1317.48,1892.739,1324.124,1907.263z"/>
							</g>
						</g>
						<g>
							<g>
								<path style="fill:#FFAA39;" d="M1033.19,2011.286c0.244,0.651,0.487,1.301,0.742,1.953
									c-9.696,7.992-14.462,14.316-12.78,17.989c1.716,3.748,9.896,4.234,22.689,1.987c16.403-2.876,40.424-10.251,68.161-21.033
									c-0.442,2.425-0.446,4.71,0.006,6.814c-10.707,4.021-21.085,7.574-30.93,10.6c-42.802,13.154-65.118,12.97-67.742,7.23
									C1011.799,2033.477,1016.245,2025.024,1033.19,2011.286z"/>
							</g>
						</g>
						<g>
							<g>
								<path style="fill:#FF9100;" d="M1030.002,2005.457l1.021,1.282c-8.715,6.761-15.447,12.809-20.504,18.129
									C1014.289,2019.286,1020.772,2012.841,1030.002,2005.457z"/>
							</g>
						</g>
						<g>
							<g>
								<path style="fill:#FF9100;" d="M1032.046,2008.009l-1.023-1.271c0.147-0.127,0.317-0.25,0.487-0.373L1032.046,2008.009z"/>
							</g>
						</g>
						<g>
							<g>
								<path style="fill:#FFAA39;" d="M1010.518,2024.868c-3.957,5.806-4.969,10.669-3.135,14.689
									c1.794,3.91,6.009,6.102,11.844,7.026c15.22,2.41,41.409-3.848,63.769-10.723c10.123-3.109,20.797-6.777,31.81-10.911
									c2.118,2.668,5.263,4.76,9.337,6.305c-16.273,6.211-32.061,11.472-46.851,15.608c-52.73,14.746-75.638,10.784-79.242,2.915
									C996.052,2045.407,998.938,2037.03,1010.518,2024.868z"/>
							</g>
						</g>
						<g>
							<g>
								<path style="fill:#FFAA39;" d="M1171.954,2032.635c-34.377,15.597-67.566,27.34-96.381,34.718
									c-49.674,12.724-86.341,12.45-93.659-3.548c-6.639-14.516,12.356-38.866,47.419-65.14c0.359,1.454,0.753,2.902,1.17,4.354
									l-2-2.615c-20.354,15.577-43.2,37.261-36.403,52.091c2.625,5.74,8.844,8.837,17.068,10.14
									c19.356,3.053,49.744-3.833,69.887-9.466c17.677-4.938,36.749-11.468,56.332-19.257
									C1145.133,2035.155,1157.539,2034.694,1171.954,2032.635z"/>
							</g>
						</g>
						<g>
							<g>
								<g>
									<path style="fill:#FFCF6E;" d="M1114.807,2024.949c-11.013,4.134-21.687,7.802-31.81,10.911
										c-22.36,6.876-48.549,13.133-63.769,10.723c-5.836-0.924-10.05-3.116-11.844-7.026c-1.835-4.021-0.822-8.883,3.135-14.689
										c5.057-5.32,11.789-11.367,20.504-18.129l1.023,1.271c0.369,1.098,0.751,2.186,1.144,3.276
										c-16.945,13.738-21.39,22.192-19.854,25.542c2.625,5.739,24.941,5.924,67.742-7.23c9.844-3.026,20.223-6.579,30.93-10.6
										c0.215,1.05,0.542,2.049,0.979,3.007C1113.468,2023.051,1114.074,2024.036,1114.807,2024.949z"/>
								</g>
							</g>
							<g>
								<g>
									<path style="fill:#FFEC90;" d="M1031.022,2006.739c-8.715,6.761-15.447,12.809-20.504,18.129
										c3.771-5.581,10.254-12.026,19.483-19.41L1031.022,2006.739z"/>
								</g>
							</g>
							<g>
								<g>
									<path style="fill:#FFEC90;" d="M1032.046,2008.009l2.044,2.552c-0.304,0.241-0.608,0.481-0.9,0.724
										C1032.796,2010.195,1032.414,2009.107,1032.046,2008.009z"/>
								</g>
							</g>
							<g>
								<g>
									<path style="fill:#FFEC90;" d="M1236.889,1965.465c-21.459,13.439-47.336,27.206-74.85,39.79
										c-15.998,7.317-31.936,13.963-47.232,19.693c-0.733-0.913-1.339-1.898-1.82-2.944c-0.437-0.958-0.764-1.957-0.979-3.007
										c15.304-5.707,31.277-12.358,47.313-19.692c27.254-12.475,52.877-26.098,74.082-39.392
										c37.937-23.787,52.386-40.795,49.771-46.522c-1.571-3.424-11.169-5.603-33.443-1.462l-0.896-4.842l-0.3-1.607
										c11.672-2.17,20.812-2.859,27.511-2.064c6.924,0.831,11.242,3.247,13.08,7.245
										C1295.603,1924.817,1264.289,1948.278,1236.889,1965.465z"/>
								</g>
							</g>
						</g>
						<g>
							<g>
								<g>
									<path style="fill:#FFCF6E;" d="M1135.387,2033.912c-19.583,7.789-38.655,14.319-56.332,19.257
										c-20.143,5.633-50.53,12.52-69.887,9.466c-8.224-1.302-14.443-4.4-17.068-10.14c-6.798-14.83,16.048-36.514,36.403-52.091
										l2,2.615c0.318,1.125,0.65,2.239,1.006,3.347c-0.17,0.123-0.339,0.247-0.487,0.373l-1.021-1.282
										c-9.23,7.384-15.712,13.829-19.483,19.41c-11.58,12.162-14.466,20.54-12.467,24.91c3.604,7.869,26.512,11.831,79.242-2.915
										c14.79-4.136,30.577-9.397,46.851-15.608C1127.334,2032.475,1131.098,2033.36,1135.387,2033.912z"/>
								</g>
							</g>
							<g>
								<g>
									<path style="fill:#FFAA39;" d="M1030.002,2005.457l1.021,1.282c-8.715,6.761-15.447,12.809-20.504,18.129
										C1014.289,2019.286,1020.772,2012.841,1030.002,2005.457z"/>
								</g>
							</g>
							<g>
								<g>
									<path style="fill:#FFEC90;" d="M1030.503,2003.019l1.981,2.589c-0.33,0.26-0.658,0.508-0.974,0.758
										C1031.153,2005.258,1030.821,2004.143,1030.503,2003.019z"/>
								</g>
							</g>
							<g>
								<g>
									<path style="fill:#FFEC90;" d="M1252.556,1973.8c-23.859,15.831-52.875,31.699-83.912,45.896
										c-11.144,5.107-22.278,9.856-33.257,14.215c-4.289-0.552-8.052-1.437-11.243-2.658
										c13.69-5.211,27.728-11.095,41.783-17.519c30.726-14.051,59.426-29.75,83.012-45.392
										c45.637-30.258,57.615-50.188,54.022-58.055c-2-4.359-10.197-7.654-26.916-6.872c-7.353,0.348-16.356,1.486-27.211,3.671
										c-0.597,0.125-1.205,0.248-1.814,0.371l-1.329-6.412c25.089-5.219,56.436-8.316,63.222,6.512
										C1317.734,1926.831,1277.394,1957.328,1252.556,1973.8z"/>
								</g>
							</g>
						</g>
						<g>
							<g>
								<path style="fill:#371A45;" d="M1015.962,2081.479c-18.01,0-33.259-3.904-38.601-15.581
									c-10.244-22.4,26.282-54.253,48.965-71.248l6.064-4.543l1.814,7.358c1.16,4.707,2.642,9.404,4.402,13.957l1.306,3.374
									l-2.793,2.305c-8.298,6.846-10.498,10.51-11.077,11.892c1.457,0.479,5.825,1.231,16.934-0.718
									c25.078-4.399,67.805-19.553,111.506-39.546c43.699-19.99,83.103-42.41,102.837-58.511
									c8.733-7.131,11.016-10.923,11.609-12.336c-1.431-0.469-5.647-1.199-16.238,0.6l-3.569,0.605l-1.699-3.193
									c-2.288-4.302-4.871-8.494-7.681-12.461l-4.375-6.182l7.398-1.616c27.69-6.05,75.674-12.852,85.92,9.538l0,0
									c11.326,24.754-32.893,60.361-60.261,79.385c-26.064,18.115-57.954,35.974-92.217,51.65
									c-34.272,15.679-68.638,28.127-99.382,36.001C1059.765,2076.579,1036.133,2081.479,1015.962,2081.479z M1026.496,2007.15
									c-35.134,27.515-43.875,46.133-40.015,54.575c4.394,9.607,30.044,15.571,87.852,0.769
									c30.178-7.727,63.962-19.971,97.698-35.405c33.733-15.432,65.083-32.986,90.669-50.767
									c49.004-34.063,61.257-57.366,56.863-66.973v-0.002c-3.862-8.438-23.655-14.001-67.453-5.405
									c0.84,1.353,1.655,2.72,2.441,4.104c13.826-1.929,21.221-0.188,23.826,5.513c2.861,6.248-1.677,13.784-14.712,24.431
									c-20.662,16.855-59.917,39.233-105.007,59.861c-45.098,20.63-87.695,35.698-113.95,40.305
									c-16.577,2.905-25.254,1.414-28.113-4.839c-2.607-5.701,0.918-12.441,11.411-21.636
									C1027.475,2010.183,1026.972,2008.671,1026.496,2007.15z"/>
							</g>
						</g>
						<g style="opacity:0.41;">
							<g>
								<g>
									<path style="fill:#FFFFFF;" d="M1260.521,1934.515c-2.264,1.849-4.782,3.779-7.546,5.79
										c-1.134-3.153-2.41-6.289-3.825-9.385c-0.224-0.483-0.448-0.958-0.673-1.433c-0.823-1.753-1.685-3.472-2.589-5.157
										c-2.421-4.553-5.107-8.892-8.015-13.005c-0.35-0.494-0.707-0.982-1.065-1.469c-4.436-6.065-9.386-11.633-14.76-16.652
										c-10.04-9.39-21.549-16.911-33.952-22.323c-30.215-13.207-65.71-13.983-98.054,0.816
										c-21.591,9.879-38.854,25.358-50.848,43.931c11.88-23.159,31.336-42.64,56.849-54.312
										c32.344-14.792,67.839-14.023,98.047-0.817c12.403,5.419,23.92,12.933,33.959,22.331
										c5.366,5.018,10.318,10.579,14.754,16.644c0.365,0.488,0.715,0.983,1.064,1.477c2.916,4.114,5.595,8.445,8.016,12.998
										c0.903,1.693,1.766,3.412,2.589,5.157c0.232,0.476,0.457,0.951,0.672,1.441
										C1257.247,1925.143,1259.039,1929.81,1260.521,1934.515z"/>
								</g>
							</g>
						</g>
						<g>
							<g>
								<path style="fill:#371A45;" d="M1041.36,2038.745l-1.787-2.893c-2.712-4.392-5.186-9.018-7.351-13.752
									c-1.069-2.344-2.061-4.695-2.974-7.066c-1.912-4.941-3.523-10.049-4.785-15.171
									c-14.336-58.188,14.876-118.547,69.458-143.518c54.573-24.973,119.351-7.605,154.006,41.292
									c3.054,4.316,5.864,8.872,8.352,13.547c1.191,2.234,2.327,4.524,3.396,6.865c2.168,4.739,4.05,9.634,5.601,14.551
									l1.02,3.242l-2.634,2.151c-20.659,16.853-59.915,39.231-105.005,59.858c-45.098,20.63-87.695,35.698-113.95,40.305
									L1041.36,2038.745z M1145.903,1855.034c-16.106,0-32.395,3.381-47.808,10.432c-50.208,22.969-77.078,78.481-63.892,132
									c1.16,4.707,2.642,9.404,4.402,13.957c0.842,2.188,1.755,4.353,2.739,6.506c1.514,3.31,3.193,6.565,5.007,9.712
									c25.427-5.095,66.333-19.79,108.13-38.911c41.794-19.119,79.661-40.461,100.146-56.37
									c-1.194-3.428-2.561-6.826-4.077-10.142l-0.002-0.005c-0.981-2.151-2.024-4.255-3.123-6.311
									c-2.292-4.309-4.875-8.501-7.686-12.468C1217.656,1872.272,1182.26,1855.034,1145.903,1855.034z"/>
							</g>
						</g>
					</g>
				</g>
			</g>
		</g>
		<g style="opacity:0.2;">
			<g>
				<ellipse style="fill:#371A45;" cx="2284.813" cy="3526.715" rx="860.187" ry="108.29"/>
			</g>
		</g>
	</g>
</g>
</svg>
